<!-- icon666.com - MILLIONS vector ICONS FREE --><svg xmlns="http://www.w3.org/2000/svg" viewBox="0 0 64 64"><title>08 Technology Podcast</title><g id="_08_Technology_Podcast" data-name="08 Technology Podcast"><path d="M15,28a16.991,16.991,0,0,1,4.155-11.125,1,1,0,1,0-1.51-1.31A18.922,18.922,0,0,0,19.53,42.283a1,1,0,1,0,1.306-1.513A16.852,16.852,0,0,1,15,28Z"></path><path d="M43.817,42.526a1,1,0,0,0,.653-.242,18.923,18.923,0,0,0,1.885-26.719,1,1,0,1,0-1.51,1.31,16.925,16.925,0,0,1-1.681,23.894,1,1,0,0,0,.653,1.757Z"></path><path d="M42.669,14.51a1,1,0,0,0,.6-1.8,18.973,18.973,0,0,0-22.532,0,1,1,0,0,0,1.192,1.606,16.973,16.973,0,0,1,20.148,0A1,1,0,0,0,42.669,14.51Z"></path><path d="M9,28a22.981,22.981,0,0,1,5.9-15.362,1,1,0,0,0-1.49-1.335,24.963,24.963,0,0,0-1.2,31.958,1,1,0,0,0,.791.388.985.985,0,0,0,.611-.209,1,1,0,0,0,.18-1.4A22.763,22.763,0,0,1,9,28Z"></path><path d="M50.6,11.3a1,1,0,0,0-1.49,1.335,22.963,22.963,0,0,1,1.1,29.4,1,1,0,0,0,.18,1.4.987.987,0,0,0,.611.209,1,1,0,0,0,.791-.388A24.963,24.963,0,0,0,50.6,11.3Z"></path><path d="M17.673,10.012a22.983,22.983,0,0,1,28.654,0,1,1,0,0,0,1.247-1.564,24.984,24.984,0,0,0-31.148,0,1,1,0,0,0,1.247,1.564Z"></path><path d="M32,15a12.905,12.905,0,0,0-6.893,1.974,1,1,0,1,0,1.066,1.692,11.2,11.2,0,0,1,11.654,0,1,1,0,1,0,1.066-1.692A12.905,12.905,0,0,0,32,15Z"></path><path d="M40.735,36.27a1,1,0,0,0,1.407-.147,13,13,0,0,0-.013-16.28A1,1,0,1,0,40.571,21.1a11,11,0,0,1,.017,13.765A1,1,0,0,0,40.735,36.27Z"></path><path d="M23.277,19.691a1,1,0,0,0-1.406.152,13,13,0,0,0-.013,16.28,1,1,0,0,0,1.554-1.26A11,11,0,0,1,23.429,21.1,1,1,0,0,0,23.277,19.691Z"></path><path d="M47,45a1,1,0,0,0-1,1v1H42.8L36.632,31.815A6,6,0,0,0,33,22.09V20a1,1,0,0,0-2,0v2.09a5.994,5.994,0,0,0-3.632,9.723L21.2,47H18V46a1,1,0,0,0-2,0v4a1,1,0,0,0,2,0V49h2.388L16.073,59.624A1,1,0,0,0,17.447,60.9l5.02-2.51a1,1,0,0,0,.479-.518L26.549,49h10.9l3.6,8.867a1,1,0,0,0,.479.518l5.02,2.51A1.011,1.011,0,0,0,47,61a1,1,0,0,0,.927-1.376L43.612,49H46v1a1,1,0,0,0,2,0V46A1,1,0,0,0,47,45ZM32,24a4,4,0,0,1,4,4,3.917,3.917,0,0,1-4,3.961h-.011c-.02,0-.038.009-.058.01A3.942,3.942,0,0,1,28,28,4,4,0,0,1,32,24ZM21.236,56.764,18.923,57.92,28.97,33.184a6.04,6.04,0,0,0,1.586.641ZM27.361,47,32,35.583,36.639,47Zm15.4,9.764-9.32-22.939a6.006,6.006,0,0,0,1.586-.641L45.077,57.92Z"></path></g></svg>